<?xml version='1.0' encoding='iso-8859-1'?>
<!DOCTYPE svg PUBLIC '-//W3C//DTD SVG 1.1//EN' 'http://www.w3.org/Graphics/SVG/1.1/DTD/svg11.dtd'>
<svg version="1.1" xmlns="http://www.w3.org/2000/svg" viewBox="0 0 417.164 417.164" xmlns:xlink="http://www.w3.org/1999/xlink" enable-background="new 0 0 417.164 417.164">
  <path d="m409.664,279.579h-57.714l7.013-69.75c0.212-2.109-0.478-4.209-1.9-5.782-1.422-1.572-3.442-2.469-5.562-2.469h-12.501v-39h12.5c4.142,0 7.5-3.358 7.5-7.5v-26c0-4.142-3.358-7.5-7.5-7.5s-7.5,3.358-7.5,7.5v18.5h-5v-29.5c0-12.407-10.093-22.5-22.5-22.5-12.407,0-22.5,10.093-22.5,22.5v83.5h-12.5c-2.12,0-4.14,0.897-5.562,2.469-1.422,1.572-2.112,3.672-1.9,5.782l7.013,69.75h-55.351l9.505-4.482c3.747-1.767 5.352-6.236 3.585-9.982l-62.708-132.989c-1.766-3.746-6.237-5.35-9.982-3.585l-29.1,13.72v-2.214c0-4.142-3.358-7.5-7.5-7.5h-36.5v-5.969c0-4.142-3.358-7.5-7.5-7.5h-44c-4.142,0-7.5,3.358-7.5,7.5v153.001h-26.5c-4.142,0-7.5,3.358-7.5,7.5v27.006c0,4.142 3.358,7.5 7.5,7.5h402.164c4.142,0 7.5-3.358 7.5-7.5v-27.006c0-4.142-3.358-7.5-7.5-7.5zm-100.664-161.5c0-4.136 3.365-7.5 7.5-7.5 4.135,0 7.5,3.364 7.5,7.5v83.5h-15v-83.5zm-19.208,98.5h53.416l-6.334,63h-40.748l-6.334-63zm-124.079-71.272l56.311,119.422-26.23,12.368-56.311-119.422 26.23-12.368zm14.667,134.272h-43.38v-91.999l43.38,91.999zm-58.38-132.032v132.032h-29v-132.032h29zm-73-13.469h29v5.969 139.532h-29v-145.501zm353.164,172.507h-387.164v-12.006h387.164v12.006z"/>
</svg>
